<?xml version="1.0" encoding="UTF-8" standalone="no"?>
<!-- Created with Inkscape (http://www.inkscape.org/) -->

<svg
   xmlns:dc="http://purl.org/dc/elements/1.1/"
   xmlns:cc="http://creativecommons.org/ns#"
   xmlns:rdf="http://www.w3.org/1999/02/22-rdf-syntax-ns#"
   xmlns:svg="http://www.w3.org/2000/svg"
   xmlns="http://www.w3.org/2000/svg"
   xmlns:sodipodi="http://sodipodi.sourceforge.net/DTD/sodipodi-0.dtd"
   xmlns:inkscape="http://www.inkscape.org/namespaces/inkscape"
   id="svg2"
   version="1.1"
   inkscape:version="0.48.4 r9939"
   width="180.11319"
   height="126.51275"
   xml:space="preserve"
   sodipodi:docname="wanderer_logo.svg"><sodipodi:namedview
     pagecolor="#ffffff"
     bordercolor="#666666"
     borderopacity="1"
     objecttolerance="10"
     gridtolerance="10"
     guidetolerance="10"
     inkscape:pageopacity="0"
     inkscape:pageshadow="2"
     inkscape:window-width="1680"
     inkscape:window-height="977"
     id="namedview4"
     showgrid="false"
     inkscape:zoom="1.7941374"
     inkscape:cx="-203.72369"
     inkscape:cy="74.459887"
     inkscape:window-x="0"
     inkscape:window-y="25"
     inkscape:window-maximized="1"
     inkscape:current-layer="g10"
     fit-margin-top="0"
     fit-margin-left="0"
     fit-margin-right="0"
     fit-margin-bottom="0" /><metadata
     id="metadata8"><rdf:RDF><cc:Work
         rdf:about=""><dc:format>image/svg+xml</dc:format><dc:type
           rdf:resource="http://purl.org/dc/dcmitype/StillImage" /><dc:title /></cc:Work></rdf:RDF></metadata><defs
     id="defs6"><clipPath
       clipPathUnits="userSpaceOnUse"
       id="clipPath18"><path
         d="m 0,595.28 841.89,0 L 841.89,0 0,0 0,595.28 z"
         id="path20"
         inkscape:connector-curvature="0" /></clipPath><clipPath
       clipPathUnits="userSpaceOnUse"
       id="clipPath302"><path
         d="m 755.525,387.313 13.993,0 0,-5.012 -13.993,0 0,5.012 z"
         id="path304"
         inkscape:connector-curvature="0" /></clipPath><clipPath
       clipPathUnits="userSpaceOnUse"
       id="clipPath318"><path
         d="m 766.183,390.736 13.416,0 0,-4.495 -13.416,0 0,4.495 z"
         id="path320"
         inkscape:connector-curvature="0" /></clipPath><clipPath
       clipPathUnits="userSpaceOnUse"
       id="clipPath342"><path
         d="m 722.698,355.617 21.428,0 0,-9.751 -21.428,0 0,9.751 z"
         id="path344"
         inkscape:connector-curvature="0" /></clipPath><clipPath
       clipPathUnits="userSpaceOnUse"
       id="clipPath362"><path
         d="m 755.976,368.844 17.718,0 0,-7.329 -17.718,0 0,7.329 z"
         id="path364"
         inkscape:connector-curvature="0" /></clipPath><clipPath
       clipPathUnits="userSpaceOnUse"
       id="clipPath378"><path
         d="m 769.498,374.108 16.069,0 0,-6.338 -16.069,0 0,6.338 z"
         id="path380"
         inkscape:connector-curvature="0" /></clipPath><clipPath
       clipPathUnits="userSpaceOnUse"
       id="clipPath402"><path
         d="m 758.053,338.853 23.231,0 0,-13.066 -23.231,0 0,13.066 z"
         id="path404"
         inkscape:connector-curvature="0" /></clipPath><clipPath
       clipPathUnits="userSpaceOnUse"
       id="clipPath418"><path
         d="m 756.625,355.963 20.459,0 0,-9.656 -20.459,0 0,9.656 z"
         id="path420"
         inkscape:connector-curvature="0" /></clipPath><clipPath
       clipPathUnits="userSpaceOnUse"
       id="clipPath434"><path
         d="m 771.386,363.039 18.839,0 0,-8.284 -18.839,0 0,8.284 z"
         id="path436"
         inkscape:connector-curvature="0" /></clipPath><clipPath
       clipPathUnits="userSpaceOnUse"
       id="clipPath450"><path
         d="m 774.939,348.41 21.276,0 0,-10.85 -21.276,0 0,10.85 z"
         id="path452"
         inkscape:connector-curvature="0" /></clipPath><clipPath
       clipPathUnits="userSpaceOnUse"
       id="clipPath466"><path
         d="m 767.899,382.998 14.161,0 0,-5.047 -14.161,0 0,5.047 z"
         id="path468"
         inkscape:connector-curvature="0" /></clipPath><clipPath
       clipPathUnits="userSpaceOnUse"
       id="clipPath482"><path
         d="m 756.018,378.656 15.298,0 0,-5.667 -15.298,0 0,5.667 z"
         id="path484"
         inkscape:connector-curvature="0" /></clipPath><clipPath
       clipPathUnits="userSpaceOnUse"
       id="clipPath502"><path
         d="m 727.036,368.684 18.154,0 0,-7.586 -18.154,0 0,7.586 z"
         id="path504"
         inkscape:connector-curvature="0" /></clipPath><clipPath
       clipPathUnits="userSpaceOnUse"
       id="clipPath518"><path
         d="m 708.578,362.401 20.472,0 0,-8.581 -20.472,0 0,8.581 z"
         id="path520"
         inkscape:connector-curvature="0" /></clipPath><clipPath
       clipPathUnits="userSpaceOnUse"
       id="clipPath678"><path
         d="m 675.853,277.574 114.372,0 0,-45.34 -114.372,0 0,45.34 z"
         id="path680"
         inkscape:connector-curvature="0" /></clipPath></defs><g
     id="g10"
     inkscape:groupmode="layer"
     inkscape:label="logo map v3_DB0814"
     transform="matrix(1.25,0,0,-1.25,-442.20345,644.78149)"><g
       id="g4470"><rect
         ry="7.251822"
         transform="scale(1,-1)"
         y="-515.67548"
         x="42.104301"
         height="101.2102"
         width="144.09055"
         id="rect3973-1"
         style="fill:#dd4814;fill-opacity:1;stroke:none" /><g
         transform="translate(70.2622,472.6982)"
         id="g124"><path
           inkscape:connector-curvature="0"
           id="path126"
           style="fill:#ffffff;fill-opacity:1;fill-rule:nonzero;stroke:none"
           d="m 0,0 c -0.402,2.143 -5.656,3.304 -11.298,2.245 -5.641,-1.059 -9.888,-3.655 -9.486,-5.798 0.403,-2.143 5.303,-3.021 10.944,-1.962 C -4.2,-4.456 0.402,-2.143 0,0" /></g><g
         transform="translate(88.9937,479.0396)"
         id="g128"><path
           inkscape:connector-curvature="0"
           id="path130"
           style="fill:#ffffff;fill-opacity:1;fill-rule:nonzero;stroke:none"
           d="m 0,0 c -0.302,1.997 -5.129,3.432 -10.428,2.641 -5.298,-0.791 -8.978,-2.99 -8.676,-4.986 0.258,-1.708 5.636,-2.86 9.77,-2.242 C -4.036,-3.796 0.301,-1.996 0,0" /></g><g
         transform="translate(105.6519,484.7256)"
         id="g132"><path
           inkscape:connector-curvature="0"
           id="path134"
           style="fill:#ffffff;fill-opacity:1;fill-rule:nonzero;stroke:none"
           d="m 0,0 c -0.202,1.85 -4.601,3.069 -9.557,2.545 -4.953,-0.524 -8.313,-2.233 -8.111,-4.082 0.201,-1.85 4.342,-2.91 9.297,-2.385 C -3.417,-3.398 0.201,-1.849 0,0" /></g><g
         transform="translate(119.4331,489.4023)"
         id="g136"><path
           inkscape:connector-curvature="0"
           id="path138"
           style="fill:#ffffff;fill-opacity:1;fill-rule:nonzero;stroke:none"
           d="m 0,0 c -0.101,1.702 -3.981,3.113 -8.594,2.856 -4.612,-0.256 -7.46,-1.618 -7.359,-3.32 0.101,-1.703 3.324,-2.979 7.936,-2.723 C -3.405,-2.93 0.101,-1.703 0,0" /></g><g
         transform="translate(132.0674,493.7876)"
         id="g140"><path
           inkscape:connector-curvature="0"
           id="path142"
           style="fill:#ffffff;fill-opacity:1;fill-rule:nonzero;stroke:none"
           d="m 0,0 c -0.001,1.556 -3.286,2.878 -7.557,2.889 -4.27,0.011 -7.36,-1.204 -7.359,-2.761 0,-1.555 3.598,-2.837 7.868,-2.848 C -2.777,-2.73 0,-1.556 0,0" /></g><g
         transform="translate(143.1143,497.4966)"
         id="g144"><path
           inkscape:connector-curvature="0"
           id="path146"
           style="fill:#ffffff;fill-opacity:1;fill-rule:nonzero;stroke:none"
           d="m 0,0 c 0.1,1.409 -2.582,2.657 -6.509,2.936 -3.926,0.277 -7.377,-0.839 -7.477,-2.249 -0.1,-1.409 2.469,-2.389 6.398,-2.668 C -3.662,-2.259 -0.1,-1.408 0,0" /></g><g
         transform="translate(153.1968,501.1953)"
         id="g148"><path
           inkscape:connector-curvature="0"
           id="path150"
           style="fill:#ffffff;fill-opacity:1;fill-rule:nonzero;stroke:none"
           d="m 0,0 c 0.09,1.261 -2.488,2.391 -6.255,2.659 -3.766,0.266 -7.069,-0.719 -7.158,-1.98 -0.089,-1.261 2.378,-2.151 6.146,-2.418 C -3.501,-2.006 -0.09,-1.261 0,0" /></g><g
         transform="translate(136.498,434.0181)"
         id="g152"><path
           inkscape:connector-curvature="0"
           id="path154"
           style="fill:#ffffff;fill-opacity:1;fill-rule:nonzero;stroke:none"
           d="m 0,0 c -0.542,4.482 -6.813,7.41 -14.007,6.54 -7.19,-0.87 -12.581,-5.207 -12.039,-9.687 0.542,-4.482 6.811,-7.41 14.003,-6.541 C -4.85,-8.818 0.542,-4.481 0,0" /></g><g
         transform="translate(98.8716,456.1821)"
         id="g156"><path
           inkscape:connector-curvature="0"
           id="path158"
           style="fill:#ffffff;fill-opacity:1;fill-rule:nonzero;stroke:none"
           d="m 0,0 c -0.386,2.988 -5.943,4.733 -12.413,3.896 -6.47,-0.835 -11.401,-3.935 -11.016,-6.922 0.387,-2.99 5.944,-4.734 12.414,-3.897 C -4.545,-6.089 0.386,-2.988 0,0" /></g><g
         transform="translate(117.7119,464.8364)"
         id="g160"><path
           inkscape:connector-curvature="0"
           id="path162"
           style="fill:#ffffff;fill-opacity:1;fill-rule:nonzero;stroke:none"
           d="m 0,0 c -0.279,2.666 -5.276,4.423 -11.237,3.825 -5.96,-0.599 -10.443,-3.103 -10.165,-5.769 0.279,-2.665 5.86,-4.341 11.82,-3.743 C -3.622,-5.088 0.279,-2.666 0,0" /></g><g
         transform="translate(133.6758,471.9795)"
         id="g164"><path
           inkscape:connector-curvature="0"
           id="path166"
           style="fill:#ffffff;fill-opacity:1;fill-rule:nonzero;stroke:none"
           d="m 0,0 c -0.167,2.304 -4.521,4.046 -9.866,3.691 -5.344,-0.357 -9.54,-2.513 -9.373,-4.816 0.168,-2.304 4.635,-3.884 9.98,-3.528 C -3.914,-4.298 0.168,-2.304 0,0" /></g><g
         transform="translate(147.2935,478.3184)"
         id="g168"><path
           inkscape:connector-curvature="0"
           id="path170"
           style="fill:#ffffff;fill-opacity:1;fill-rule:nonzero;stroke:none"
           d="m 0,0 c -0.063,2.02 -3.943,3.806 -8.885,3.682 -4.942,-0.124 -8.897,-1.862 -8.833,-3.882 0.063,-2.021 4.122,-3.558 9.064,-3.435 C -3.713,-3.511 0.064,-2.02 0,0" /></g><g
         transform="translate(159.1675,483.5527)"
         id="g172"><path
           inkscape:connector-curvature="0"
           id="path174"
           style="fill:#ffffff;fill-opacity:1;fill-rule:nonzero;stroke:none"
           d="m 0,0 c 0.046,1.747 -3.329,3.595 -7.833,3.71 -4.504,0.116 -8.191,-1.205 -8.237,-2.951 -0.045,-1.746 3.571,-3.255 8.075,-3.371 C -3.491,-2.728 -0.044,-1.746 0,0" /></g><g
         transform="translate(116.2324,445.9023)"
         id="g176"><path
           inkscape:connector-curvature="0"
           id="path178"
           style="fill:#ffffff;fill-opacity:1;fill-rule:nonzero;stroke:none"
           d="m 0,0 c -0.419,3.537 -6.32,5.744 -13.179,4.929 -6.86,-0.814 -12.081,-4.34 -11.661,-7.875 0.42,-3.537 6.32,-5.743 13.18,-4.93 C -4.801,-7.062 0.42,-3.536 0,0" /></g><g
         transform="translate(134.8989,455.7363)"
         id="g180"><path
           inkscape:connector-curvature="0"
           id="path182"
           style="fill:#ffffff;fill-opacity:1;fill-rule:nonzero;stroke:none"
           d="m 0,0 c -0.187,3.019 -5.225,5.325 -11.37,4.975 -6.141,-0.35 -10.967,-3.081 -10.78,-6.1 0.188,-3.02 5.319,-5.184 11.462,-4.834 C -4.546,-5.609 0.188,-3.02 0,0" /></g><g
         transform="translate(154.8823,445.3701)"
         id="g184"><path
           inkscape:connector-curvature="0"
           id="path186"
           style="fill:#ffffff;fill-opacity:1;fill-rule:nonzero;stroke:none"
           d="m 0,0 c 0.077,3.607 -4.974,6.672 -11.419,6.645 -6.446,-0.028 -11.734,-2.975 -11.81,-6.583 -0.077,-3.609 5.086,-6.51 11.532,-6.483 C -5.252,-6.393 -0.076,-3.609 0,0" /></g><g
         transform="translate(150.6812,464.3286)"
         id="g188"><path
           inkscape:connector-curvature="0"
           id="path190"
           style="fill:#ffffff;fill-opacity:1;fill-rule:nonzero;stroke:none"
           d="m 0,0 c -0.099,2.662 -4.613,4.966 -10.312,4.786 -5.699,-0.18 -10.241,-2.481 -10.143,-5.141 0.1,-2.662 4.8,-4.674 10.499,-4.495 C -4.257,-4.67 0.099,-2.661 0,0" /></g><g
         transform="translate(163.8232,471.3701)"
         id="g192"><path
           inkscape:connector-curvature="0"
           id="path194"
           style="fill:#ffffff;fill-opacity:1;fill-rule:nonzero;stroke:none"
           d="m 0,0 c 0.06,2.283 -3.89,4.687 -9.171,4.823 -5.278,0.135 -9.606,-1.604 -9.666,-3.887 -0.059,-2.284 4.175,-4.244 9.455,-4.379 C -4.104,-3.579 -0.058,-2.283 0,0" /></g><g
         transform="translate(169.8135,455.2866)"
         id="g196"><path
           inkscape:connector-curvature="0"
           id="path198"
           style="fill:#ffffff;fill-opacity:1;fill-rule:nonzero;stroke:none"
           d="m 0,0 c 0.078,2.992 -4.374,6.125 -10.336,6.278 -5.963,0.153 -10.86,-2.148 -10.937,-5.139 -0.078,-2.992 4.695,-5.541 10.658,-5.695 C -4.652,-4.708 -0.077,-2.991 0,0" /></g><g
         transform="translate(155.6592,493.3013)"
         id="g200"><path
           inkscape:connector-curvature="0"
           id="path202"
           style="fill:#ffffff;fill-opacity:1;fill-rule:nonzero;stroke:none"
           d="m 0,0 c 0.012,1.394 -2.989,2.824 -6.956,2.857 -3.967,0.035 -7.192,-1.067 -7.204,-2.461 -0.013,-1.393 3.194,-2.55 7.162,-2.584 C -3.032,-2.221 -0.012,-1.393 0,0" /></g><g
         transform="translate(144.915,488.9946)"
         id="g204"><path
           inkscape:connector-curvature="0"
           id="path206"
           style="fill:#ffffff;fill-opacity:1;fill-rule:nonzero;stroke:none"
           d="m 0,0 c -0.054,1.561 -3.397,2.934 -7.664,2.816 -4.268,-0.119 -7.686,-1.479 -7.632,-3.04 0.052,-1.561 3.556,-2.729 7.824,-2.611 C -3.206,-2.718 0.053,-1.561 0,0" /></g><g
         transform="translate(132.8042,484.0762)"
         id="g208"><path
           inkscape:connector-curvature="0"
           id="path210"
           style="fill:#ffffff;fill-opacity:1;fill-rule:nonzero;stroke:none"
           d="m 0,0 c -0.106,1.707 -3.918,3.079 -8.664,2.891 -4.744,-0.19 -8.503,-1.726 -8.397,-3.433 0.106,-1.707 4.038,-2.937 8.782,-2.748 C -3.533,-3.102 0.107,-1.707 0,0" /></g><g
         transform="translate(118.7852,478.6729)"
         id="g212"><path
           inkscape:connector-curvature="0"
           id="path214"
           style="fill:#ffffff;fill-opacity:1;fill-rule:nonzero;stroke:none"
           d="m 0,0 c -0.166,2.058 -4.302,3.504 -9.334,3.106 -5.032,-0.398 -8.976,-2.387 -8.81,-4.444 0.165,-2.058 4.379,-3.403 9.411,-3.006 C -3.701,-3.946 0.167,-2.057 0,0" /></g><g
         transform="translate(102.6416,472.1191)"
         id="g216"><path
           inkscape:connector-curvature="0"
           id="path218"
           style="fill:#ffffff;fill-opacity:1;fill-rule:nonzero;stroke:none"
           d="m 0,0 c -0.221,2.318 -4.949,3.846 -10.609,3.351 -5.66,-0.494 -10.069,-2.773 -9.847,-5.091 0.222,-2.319 4.989,-3.797 10.649,-3.302 C -4.146,-4.548 0.222,-2.318 0,0" /></g><g
         transform="translate(83.7627,465.1719)"
         id="g220"><path
           inkscape:connector-curvature="0"
           id="path222"
           style="fill:#ffffff;fill-opacity:1;fill-rule:nonzero;stroke:none"
           d="M 0,0 C -0.35,2.713 -5.768,4.249 -12.099,3.431 -18.432,2.613 -23.28,-0.25 -22.93,-2.963 c 0.35,-2.713 5.767,-4.25 12.1,-3.432 C -4.498,-5.577 0.351,-2.714 0,0" /></g></g><g
       id="g4051"><rect
         ry="7.251822"
         transform="scale(1,-1)"
         y="-515.8252"
         x="353.76276"
         height="101.2102"
         width="144.09055"
         id="rect3973"
         style="fill:#dd4814;fill-opacity:1;stroke:none" /><g
         id="g3975"><g
           id="g752"
           transform="translate(436.5391,432.7842)"><path
             d="M 0,0 36.027,23.595"
             style="fill:none;stroke:#ffffff;stroke-width:6.46999979;stroke-linecap:butt;stroke-linejoin:miter;stroke-miterlimit:10;stroke-opacity:1;stroke-dasharray:none"
             id="path754"
             inkscape:connector-curvature="0" /></g><g
           id="g756"
           transform="translate(372.0967,470.9453)"><path
             d="M 0,0 20.741,7.23 47.761,-7.231 92.236,13.155"
             style="fill:none;stroke:#ffffff;stroke-width:3.80599999;stroke-linecap:butt;stroke-linejoin:miter;stroke-miterlimit:10;stroke-opacity:1;stroke-dasharray:none"
             id="path758"
             inkscape:connector-curvature="0" /></g><g
           id="g760"
           transform="translate(369.0269,467.3047)"><path
             d="m 0,0 c -3.192,0 -5.572,0.8 -5.787,1.946 -0.294,1.57 3.342,4.064 9.031,5.132 1.37,0.257 2.746,0.387 4.089,0.387 3.983,0 6.343,-1.121 6.542,-2.177 C 14.145,3.848 10.438,1.556 4.49,0.439 2.938,0.148 1.427,0 0,0 z"
             style="fill:#dd4814;fill-opacity:1;fill-rule:nonzero;stroke:none"
             id="path762"
             inkscape:connector-curvature="0" /></g><g
           id="g764"
           transform="translate(376.3604,475.3408)"><path
             d="m 0,0 c -1.323,0 -2.746,-0.125 -4.195,-0.397 -5.641,-1.06 -9.888,-3.655 -9.486,-5.798 0.286,-1.527 2.855,-2.412 6.348,-2.412 1.41,0 2.972,0.145 4.595,0.449 5.64,1.059 10.242,3.372 9.84,5.515 C 6.803,-1.05 3.825,0 0,0 m 0,-1.142 c 3.95,0 5.872,-1.133 5.98,-1.711 0.154,-0.822 -2.857,-3.043 -8.929,-4.183 -1.518,-0.285 -2.993,-0.429 -4.384,-0.429 -3.376,0 -5.114,0.883 -5.226,1.48 -0.175,0.936 2.692,3.361 8.574,4.465 1.337,0.251 2.677,0.378 3.985,0.378"
             style="fill:#ffffff;fill-opacity:1;fill-rule:nonzero;stroke:none"
             id="path766"
             inkscape:connector-curvature="0" /></g><g
           id="g768"
           transform="translate(390.4595,474.854)"><path
             d="m 0,0 c -3.916,0 -6.689,1.16 -6.805,1.926 -0.048,0.317 0.065,0.663 0.335,1.029 1.076,1.456 4.162,2.754 7.862,3.307 0.955,0.143 1.923,0.215 2.877,0.215 3.914,0 6.728,-1.229 6.901,-2.376 C 11.205,3.867 11.129,3.627 10.937,3.367 9.97,2.058 6.586,0.8 2.316,0.163 1.594,0.055 0.815,0 0,0"
             style="fill:#dd4814;fill-opacity:1;fill-rule:nonzero;stroke:none"
             id="path770"
             inkscape:connector-curvature="0" /></g><g
           id="g772"
           transform="translate(394.7285,481.9019)"><path
             d="m 0,0 c -0.952,0 -1.948,-0.07 -2.962,-0.221 -5.297,-0.792 -8.978,-2.99 -8.677,-4.986 0.21,-1.39 3.809,-2.412 7.37,-2.412 0.816,0 1.63,0.054 2.4,0.169 5.299,0.791 9.637,2.592 9.334,4.588 C 7.222,-1.248 4.018,0 0,0 m 0,-1.142 c 3.973,0 6.237,-1.231 6.336,-1.891 C 6.351,-3.125 6.274,-3.252 6.208,-3.342 5.509,-4.288 2.631,-5.624 -2.038,-6.32 c -0.693,-0.104 -1.444,-0.157 -2.231,-0.157 -3.494,0 -5.925,0.962 -6.244,1.475 -0.012,0.193 0.118,0.414 0.233,0.57 0.812,1.099 3.441,2.477 7.487,3.081 0.927,0.139 1.867,0.209 2.793,0.209"
             style="fill:#ffffff;fill-opacity:1;fill-rule:nonzero;stroke:none"
             id="path774"
             inkscape:connector-curvature="0" /></g><g
           id="g776"
           transform="translate(418.8525,484.7256)"><path
             d="m 0,0 c -0.202,1.85 -4.601,3.069 -9.556,2.545 -4.954,-0.524 -8.314,-2.233 -8.113,-4.082 0.202,-1.85 4.343,-2.91 9.298,-2.385 C -3.417,-3.398 0.201,-1.849 0,0"
             style="fill:#ffffff;fill-opacity:1;fill-rule:nonzero;stroke:none"
             id="path778"
             inkscape:connector-curvature="0" /></g><g
           id="g780"
           transform="translate(432.6328,489.4023)"><path
             d="m 0,0 c -0.1,1.702 -3.98,3.113 -8.593,2.856 -4.612,-0.256 -7.46,-1.618 -7.359,-3.32 0.101,-1.703 3.324,-2.979 7.936,-2.723 C -3.404,-2.93 0.102,-1.703 0,0"
             style="fill:#ffffff;fill-opacity:1;fill-rule:nonzero;stroke:none"
             id="path782"
             inkscape:connector-curvature="0" /></g><g
           id="g784"
           transform="translate(445.2686,493.7876)"><path
             d="m 0,0 c -0.002,1.556 -3.287,2.878 -7.558,2.889 -4.269,0.011 -7.359,-1.204 -7.359,-2.761 0,-1.555 3.599,-2.837 7.868,-2.848 C -2.777,-2.73 0,-1.556 0,0"
             style="fill:#ffffff;fill-opacity:1;fill-rule:nonzero;stroke:none"
             id="path786"
             inkscape:connector-curvature="0" /></g><g
           id="g788"
           transform="translate(456.3154,497.4966)"><path
             d="m 0,0 c 0.1,1.409 -2.583,2.657 -6.509,2.936 -3.927,0.277 -7.378,-0.839 -7.477,-2.249 -0.101,-1.409 2.469,-2.389 6.397,-2.668 C -3.663,-2.259 -0.101,-1.408 0,0"
             style="fill:#ffffff;fill-opacity:1;fill-rule:nonzero;stroke:none"
             id="path790"
             inkscape:connector-curvature="0" /></g><g
           id="g792"
           transform="translate(466.3975,501.1953)"><path
             d="m 0,0 c 0.089,1.261 -2.488,2.391 -6.255,2.659 -3.766,0.266 -7.068,-0.719 -7.158,-1.98 -0.089,-1.261 2.378,-2.151 6.145,-2.418 C -3.502,-2.006 -0.09,-1.261 0,0"
             style="fill:#ffffff;fill-opacity:1;fill-rule:nonzero;stroke:none"
             id="path794"
             inkscape:connector-curvature="0" /></g><g
           id="g796"
           transform="translate(435.1426,425.1294)"><path
             d="m 0,0 c -5.7,0 -10.136,2.462 -10.546,5.855 -0.469,3.886 4.664,7.837 11.21,8.629 0.802,0.097 1.609,0.146 2.4,0.146 5.702,0 10.137,-2.463 10.547,-5.856 C 13.833,6.945 12.849,5.048 10.839,3.432 8.701,1.712 5.703,0.545 2.398,0.146 1.598,0.049 0.791,0 0.001,0 L 0,0 z"
             style="fill:#dd4814;fill-opacity:1;fill-rule:nonzero;stroke:none"
             id="path798"
             inkscape:connector-curvature="0" /></g><g
           id="g800"
           transform="translate(438.207,440.7109)"><path
             d="m 0,0 c -0.82,0 -1.66,-0.049 -2.515,-0.153 -7.19,-0.869 -12.581,-5.206 -12.04,-9.687 0.478,-3.951 5.405,-6.693 11.491,-6.693 0.819,0 1.659,0.05 2.512,0.153 7.194,0.869 12.586,5.206 12.043,9.687 C 11.014,-2.743 6.086,0 0,0 m 0,-1.902 c 5.128,0 9.256,-2.158 9.603,-5.02 0.243,-2.011 -1.415,-3.674 -2.425,-4.487 -2.001,-1.609 -4.827,-2.704 -7.958,-3.082 -0.763,-0.092 -1.533,-0.139 -2.284,-0.139 -5.128,0 -9.255,2.157 -9.602,5.018 -0.407,3.374 4.347,6.841 10.38,7.57 0.764,0.093 1.533,0.14 2.286,0.14"
             style="fill:#ffffff;fill-opacity:1;fill-rule:nonzero;stroke:none"
             id="path802"
             inkscape:connector-curvature="0" /></g><g
           id="g804"
           transform="translate(412.0723,456.1821)"><path
             d="m 0,0 c -0.387,2.988 -5.944,4.733 -12.413,3.896 -6.47,-0.835 -11.402,-3.935 -11.016,-6.922 0.386,-2.99 5.944,-4.734 12.413,-3.897 C -4.546,-6.089 0.386,-2.988 0,0"
             style="fill:#ffffff;fill-opacity:1;fill-rule:nonzero;stroke:none"
             id="path806"
             inkscape:connector-curvature="0" /></g><g
           id="g808"
           transform="translate(418.9194,459.5991)"><path
             d="m 0,0 c -4.761,0 -8.645,1.473 -8.841,3.353 -0.055,0.53 0.142,1.076 0.586,1.622 1.405,1.725 4.965,3.107 9.068,3.52 0.755,0.075 1.512,0.114 2.25,0.114 4.562,0 8.157,-1.475 8.362,-3.431 C 11.488,4.579 11.279,3.979 10.804,3.396 9.457,1.739 6.297,0.514 2.354,0.118 1.573,0.04 0.781,0 0,0 z"
             style="fill:#dd4814;fill-opacity:1;fill-rule:nonzero;stroke:none"
             id="path810"
             inkscape:connector-curvature="0" /></g><g
           id="g812"
           transform="translate(421.9824,468.7788)"><path
             d="m 0,0 c -0.746,0 -1.518,-0.038 -2.307,-0.117 -5.961,-0.599 -10.443,-3.104 -10.165,-5.769 0.241,-2.301 4.433,-3.864 9.409,-3.864 0.789,0 1.596,0.039 2.412,0.121 5.96,0.598 9.86,3.021 9.581,5.687 C 8.688,-1.629 4.894,0 0,0 m 0,-1.142 c 4.626,0 7.647,-1.515 7.794,-2.92 0.047,-0.442 -0.12,-0.901 -0.495,-1.362 -1.236,-1.518 -4.325,-2.694 -8.064,-3.069 -0.763,-0.077 -1.536,-0.116 -2.298,-0.116 -4.771,0 -8.13,1.469 -8.273,2.841 -0.039,0.374 0.116,0.778 0.461,1.202 1.314,1.614 4.722,2.915 8.683,3.313 0.735,0.074 1.473,0.111 2.192,0.111"
             style="fill:#ffffff;fill-opacity:1;fill-rule:nonzero;stroke:none"
             id="path814"
             inkscape:connector-curvature="0" /></g><g
           id="g816"
           transform="translate(436.126,467.8472)"><path
             d="m 0,0 c -4.818,0 -7.811,1.55 -7.919,3.048 -0.03,0.416 0.148,0.849 0.528,1.287 1.306,1.501 4.647,2.674 8.313,2.918 0.454,0.031 0.901,0.045 1.339,0.045 4.748,0 7.807,-1.664 7.92,-3.207 C 10.211,3.678 10.042,3.256 9.678,2.838 8.42,1.392 5.192,0.297 1.453,0.049 0.96,0.016 0.476,0 0.001,0 L 0,0 z"
             style="fill:#dd4814;fill-opacity:1;fill-rule:nonzero;stroke:none"
             id="path818"
             inkscape:connector-curvature="0" /></g><g
           id="g820"
           transform="translate(438.3867,475.7163)"><path
             d="m 0,0 c -0.45,0 -0.909,-0.015 -1.377,-0.046 -5.344,-0.356 -9.539,-2.513 -9.372,-4.816 0.151,-2.086 3.827,-3.578 8.488,-3.578 0.488,0 0.986,0.016 1.491,0.05 5.346,0.355 9.427,2.349 9.259,4.653 C 8.337,-1.635 4.698,0 0,0 m 0,-1.142 c 4.608,0 7.271,-1.583 7.351,-2.678 0.018,-0.256 -0.104,-0.537 -0.365,-0.837 -0.953,-1.095 -3.744,-2.322 -7.832,-2.594 -0.472,-0.031 -0.949,-0.047 -1.415,-0.047 -4.615,0 -7.275,1.489 -7.349,2.518 -0.019,0.259 0.112,0.552 0.389,0.872 1.01,1.159 3.85,2.451 7.919,2.723 0.436,0.029 0.873,0.043 1.302,0.043"
             style="fill:#ffffff;fill-opacity:1;fill-rule:nonzero;stroke:none"
             id="path822"
             inkscape:connector-curvature="0" /></g><g
           id="g824"
           transform="translate(451.2881,475.2471)"><path
             d="m 0,0 c -4.696,0 -7.897,1.494 -7.941,2.889 -0.01,0.321 0.145,0.654 0.462,0.99 1.22,1.291 4.361,2.217 7.815,2.303 0.158,0.004 0.314,0.006 0.471,0.006 4.555,0 7.782,-1.652 7.829,-3.135 C 8.646,2.738 8.503,2.421 8.212,2.114 7.087,0.922 4.075,0.096 0.538,0.007 0.357,0.002 0.179,0 0.001,0 L 0,0 z"
             style="fill:#dd4814;fill-opacity:1;fill-rule:nonzero;stroke:none"
             id="path826"
             inkscape:connector-curvature="0" /></g><g
           id="g828"
           transform="translate(452.0937,482.0059)"><path
             d="m 0,0 c -0.16,0 -0.321,-0.002 -0.484,-0.006 -4.943,-0.123 -8.898,-1.861 -8.833,-3.882 0.061,-1.944 3.823,-3.442 8.511,-3.442 0.183,0 0.368,0.003 0.553,0.007 4.94,0.124 8.718,1.615 8.653,3.635 C 8.339,-1.734 4.708,0 0,0 m 0,-1.142 c 4.645,0 7.231,-1.705 7.26,-2.582 0.005,-0.158 -0.086,-0.336 -0.269,-0.529 -0.84,-0.89 -3.415,-1.831 -7.272,-1.929 -0.177,-0.004 -0.351,-0.006 -0.525,-0.006 -4.721,0 -7.345,1.543 -7.37,2.337 -0.007,0.204 0.163,0.427 0.307,0.58 0.903,0.956 3.608,2.029 7.413,2.124 0.153,0.003 0.306,0.005 0.456,0.005"
             style="fill:#ffffff;fill-opacity:1;fill-rule:nonzero;stroke:none"
             id="path830"
             inkscape:connector-curvature="0" /></g><g
           id="g832"
           transform="translate(465.0811,481.502)"><path
             d="m 0,0 c -0.228,0 -0.459,0.003 -0.693,0.009 -4.341,0.112 -7.55,1.563 -7.519,2.786 0.03,1.136 2.962,2.402 7.12,2.402 0.176,0 0.354,-0.002 0.531,-0.007 C 1.477,5.138 3.389,4.718 4.823,4.006 6.007,3.419 6.732,2.676 6.717,2.066 6.691,1.064 4.328,0 0.001,0 L 0,0 z"
             style="fill:#dd4814;fill-opacity:1;fill-rule:nonzero;stroke:none"
             id="path834"
             inkscape:connector-curvature="0" /></g><g
           id="g836"
           transform="translate(463.9893,487.27)"><path
             d="m 0,0 c -4.253,0 -7.646,-1.283 -7.69,-2.958 -0.045,-1.747 3.57,-3.255 8.074,-3.372 0.239,-0.006 0.475,-0.009 0.708,-0.009 4.151,0 7.245,0.969 7.287,2.622 0.046,1.746 -3.328,3.594 -7.833,3.71 C 0.363,-0.002 0.181,0 0,0 m 0,-1.142 c 0.171,0 0.344,-0.002 0.517,-0.006 1.956,-0.05 3.783,-0.45 5.145,-1.125 1.159,-0.576 1.582,-1.173 1.575,-1.415 -0.01,-0.444 -1.795,-1.509 -6.145,-1.509 -0.223,0 -0.449,0.003 -0.679,0.009 -4.557,0.117 -6.977,1.614 -6.962,2.2 0.014,0.535 2.326,1.846 6.549,1.846"
             style="fill:#ffffff;fill-opacity:1;fill-rule:nonzero;stroke:none"
             id="path838"
             inkscape:connector-curvature="0" /></g><g
           id="g840"
           transform="translate(429.4336,445.9023)"><path
             d="m 0,0 c -0.42,3.537 -6.32,5.744 -13.18,4.929 -6.859,-0.814 -12.08,-4.34 -11.661,-7.875 0.42,-3.537 6.32,-5.743 13.18,-4.93 C -4.802,-7.062 0.42,-3.536 0,0"
             style="fill:#ffffff;fill-opacity:1;fill-rule:nonzero;stroke:none"
             id="path842"
             inkscape:connector-curvature="0" /></g><g
           id="g844"
           transform="translate(448.0996,455.7363)"><path
             d="m 0,0 c -0.187,3.019 -5.225,5.325 -11.369,4.975 -6.143,-0.35 -10.969,-3.081 -10.781,-6.1 0.188,-3.02 5.319,-5.184 11.462,-4.834 C -4.546,-5.609 0.188,-3.02 0,0"
             style="fill:#ffffff;fill-opacity:1;fill-rule:nonzero;stroke:none"
             id="path846"
             inkscape:connector-curvature="0" /></g><g
           id="g848"
           transform="translate(456.2988,439.7095)"><path
             d="m 0,0 c -3.996,0 -7.636,1.182 -9.498,3.084 -0.807,0.824 -1.206,1.706 -1.187,2.623 0.068,3.139 5.129,5.812 11.053,5.837 3.955,0 7.525,-1.19 9.401,-3.107 0.84,-0.859 1.275,-1.813 1.254,-2.76 C 10.958,2.573 6.05,0.027 0.084,0 L 0,0 z"
             style="fill:#dd4814;fill-opacity:1;fill-rule:nonzero;stroke:none"
             id="path850"
             inkscape:connector-curvature="0" /></g><g
           id="g852"
           transform="translate(456.751,452.0146)"><path
             d="m 0,0 -0.087,0 c -6.445,-0.027 -11.733,-2.975 -11.81,-6.583 -0.077,-3.592 5.04,-6.483 11.445,-6.483 l 0.087,0 c 6.445,0.029 11.621,2.813 11.697,6.421 C 11.409,-3.054 6.402,0 0,0 m 0,-1.522 c 3.673,0 7.035,-1.103 8.772,-2.878 0.706,-0.72 1.054,-1.464 1.039,-2.212 -0.05,-2.36 -4.154,-4.905 -10.182,-4.931 l -0.081,-0.001 c -3.799,0 -7.23,1.094 -8.954,2.856 -0.658,0.671 -0.985,1.369 -0.97,2.073 0.052,2.388 4.292,5.067 10.296,5.093 l 0.08,0"
             style="fill:#ffffff;fill-opacity:1;fill-rule:nonzero;stroke:none"
             id="path854"
             inkscape:connector-curvature="0" /></g><g
           id="g856"
           transform="translate(463.8818,464.3286)"><path
             d="m 0,0 c -0.099,2.662 -4.613,4.966 -10.312,4.786 -5.699,-0.18 -10.241,-2.481 -10.143,-5.141 0.1,-2.662 4.801,-4.674 10.5,-4.495 C -4.257,-4.67 0.099,-2.661 0,0"
             style="fill:#ffffff;fill-opacity:1;fill-rule:nonzero;stroke:none"
             id="path858"
             inkscape:connector-curvature="0" /></g><g
           id="g860"
           transform="translate(477.0244,471.3701)"><path
             d="m 0,0 c 0.06,2.283 -3.891,4.687 -9.171,4.823 -5.279,0.135 -9.607,-1.604 -9.667,-3.887 -0.058,-2.284 4.176,-4.244 9.454,-4.379 C -4.104,-3.579 -0.058,-2.283 0,0"
             style="fill:#ffffff;fill-opacity:1;fill-rule:nonzero;stroke:none"
             id="path862"
             inkscape:connector-curvature="0" /></g><g
           id="g864"
           transform="translate(473.126,451.2925)"><path
             d="m 0,0 c -0.234,0 -0.473,0.003 -0.712,0.009 -2.797,0.072 -5.404,0.681 -7.34,1.716 -1.813,0.968 -2.794,2.173 -2.762,3.393 0.065,2.531 4.464,4.59 9.805,4.59 0.181,0 0.363,-0.002 0.546,-0.007 C 2.239,9.632 4.776,8.927 6.679,7.716 8.389,6.628 9.351,5.277 9.317,4.009 9.257,1.648 5.425,0 0,0"
             style="fill:#dd4814;fill-opacity:1;fill-rule:nonzero;stroke:none"
             id="path866"
             inkscape:connector-curvature="0" /></g><g
           id="g868"
           transform="translate(472.1172,461.5718)"><path
             d="m 0,0 c -5.706,0 -10.301,-2.25 -10.376,-5.146 -0.078,-2.992 4.695,-5.541 10.658,-5.695 0.244,-0.006 0.488,-0.009 0.727,-0.009 5.604,0 9.814,1.696 9.887,4.565 C 10.975,-3.293 6.523,-0.16 0.561,-0.007 0.373,-0.002 0.186,0 0,0 m 0,-1.142 c 0.176,0 0.354,-0.002 0.531,-0.006 2.601,-0.067 5.033,-0.74 6.85,-1.896 1.514,-0.964 2.401,-2.164 2.374,-3.212 -0.051,-2 -3.73,-3.452 -8.746,-3.452 -0.231,0 -0.463,0.002 -0.697,0.008 -2.71,0.071 -5.227,0.656 -7.086,1.649 -1.589,0.849 -2.486,1.897 -2.46,2.876 0.049,1.947 3.772,4.033 9.234,4.033"
             style="fill:#ffffff;fill-opacity:1;fill-rule:nonzero;stroke:none"
             id="path870"
             inkscape:connector-curvature="0" /></g><g
           id="g872"
           transform="translate(468.8594,493.3013)"><path
             d="m 0,0 c 0.013,1.394 -2.988,2.824 -6.955,2.857 -3.967,0.035 -7.193,-1.067 -7.205,-2.461 -0.012,-1.393 3.194,-2.55 7.163,-2.584 C -3.031,-2.221 -0.012,-1.393 0,0"
             style="fill:#ffffff;fill-opacity:1;fill-rule:nonzero;stroke:none"
             id="path874"
             inkscape:connector-curvature="0" /></g><g
           id="g876"
           transform="translate(458.1162,488.9946)"><path
             d="m 0,0 c -0.054,1.561 -3.397,2.934 -7.664,2.816 -4.269,-0.119 -7.686,-1.479 -7.633,-3.04 0.052,-1.561 3.556,-2.729 7.824,-2.611 C -3.206,-2.718 0.053,-1.561 0,0"
             style="fill:#ffffff;fill-opacity:1;fill-rule:nonzero;stroke:none"
             id="path878"
             inkscape:connector-curvature="0" /></g><g
           id="g880"
           transform="translate(446.0049,484.0762)"><path
             d="m 0,0 c -0.106,1.707 -3.918,3.079 -8.664,2.891 -4.743,-0.19 -8.503,-1.726 -8.397,-3.433 0.106,-1.707 4.039,-2.937 8.782,-2.748 C -3.533,-3.102 0.106,-1.707 0,0"
             style="fill:#ffffff;fill-opacity:1;fill-rule:nonzero;stroke:none"
             id="path882"
             inkscape:connector-curvature="0" /></g><g
           id="g884"
           transform="translate(431.9854,478.6729)"><path
             d="m 0,0 c -0.166,2.058 -4.302,3.504 -9.333,3.106 -5.032,-0.398 -8.977,-2.387 -8.811,-4.444 0.166,-2.058 4.38,-3.403 9.412,-3.006 C -3.7,-3.946 0.167,-2.057 0,0"
             style="fill:#ffffff;fill-opacity:1;fill-rule:nonzero;stroke:none"
             id="path886"
             inkscape:connector-curvature="0" /></g><g
           id="g888"
           transform="translate(403.8794,467.5522)"><path
             d="m 0,0 c -4.788,0 -7.79,1.465 -7.925,2.881 -0.037,0.393 0.124,0.809 0.48,1.237 1.32,1.586 4.876,2.884 8.848,3.231 C 2.093,7.41 2.786,7.44 3.46,7.44 8.252,7.44 11.257,5.952 11.395,4.513 11.432,4.119 11.273,3.706 10.921,3.283 9.622,1.722 6.08,0.44 2.106,0.093 1.399,0.031 0.691,0 0.001,0 L 0,0 z"
             style="fill:#dd4814;fill-opacity:1;fill-rule:nonzero;stroke:none"
             id="path890"
             inkscape:connector-curvature="0" /></g><g
           id="g892"
           transform="translate(407.3398,475.5635)"><path
             d="m 0,0 c -0.683,0 -1.387,-0.03 -2.107,-0.093 -5.66,-0.494 -10.068,-2.774 -9.847,-5.092 0.193,-2.016 3.826,-3.397 8.494,-3.397 0.698,0 1.419,0.031 2.156,0.095 5.659,0.494 10.028,2.725 9.806,5.043 C 8.31,-1.421 4.683,0 0,0 m 0,-1.142 c 4.595,0 7.272,-1.425 7.366,-2.411 0.023,-0.236 -0.094,-0.509 -0.345,-0.81 -1.005,-1.208 -4,-2.6 -8.424,-2.987 -0.691,-0.06 -1.384,-0.09 -2.057,-0.09 -4.653,0 -7.262,1.373 -7.357,2.364 -0.023,0.236 0.095,0.512 0.35,0.818 0.99,1.189 4.059,2.643 8.459,3.028 0.674,0.058 1.35,0.088 2.008,0.088"
             style="fill:#ffffff;fill-opacity:1;fill-rule:nonzero;stroke:none"
             id="path894"
             inkscape:connector-curvature="0" /></g><g
           id="g896"
           transform="translate(396.9634,465.1719)"><path
             d="M 0,0 C -0.351,2.713 -5.768,4.249 -12.099,3.431 -18.432,2.613 -23.28,-0.25 -22.93,-2.963 c 0.35,-2.713 5.767,-4.25 12.1,-3.432 C -4.498,-5.577 0.351,-2.714 0,0"
             style="fill:#ffffff;fill-opacity:1;fill-rule:nonzero;stroke:none"
             id="path898"
             inkscape:connector-curvature="0" /></g></g></g></g></svg>