<?xml version="1.0" encoding="UTF-8" standalone="no"?>
<!-- Created with Inkscape (http://www.inkscape.org/) -->

<svg
   xmlns:dc="http://purl.org/dc/elements/1.1/"
   xmlns:cc="http://creativecommons.org/ns#"
   xmlns:rdf="http://www.w3.org/1999/02/22-rdf-syntax-ns#"
   xmlns:svg="http://www.w3.org/2000/svg"
   xmlns="http://www.w3.org/2000/svg"
   xmlns:sodipodi="http://sodipodi.sourceforge.net/DTD/sodipodi-0.dtd"
   xmlns:inkscape="http://www.inkscape.org/namespaces/inkscape"
   id="svg2"
   version="1.1"
   inkscape:version="0.48.4 r9939"
   width="185.04715"
   height="134.88376"
   xml:space="preserve"
   sodipodi:docname="logo map v3_DB0814.svg"><sodipodi:namedview
     pagecolor="#ffffff"
     bordercolor="#666666"
     borderopacity="1"
     objecttolerance="10"
     gridtolerance="10"
     guidetolerance="10"
     inkscape:pageopacity="0"
     inkscape:pageshadow="2"
     inkscape:window-width="1680"
     inkscape:window-height="977"
     id="namedview4"
     showgrid="false"
     inkscape:zoom="0.8970687"
     inkscape:cx="-95.494963"
     inkscape:cy="139.06894"
     inkscape:window-x="0"
     inkscape:window-y="25"
     inkscape:window-maximized="1"
     inkscape:current-layer="g10"
     fit-margin-top="0"
     fit-margin-left="0"
     fit-margin-right="0"
     fit-margin-bottom="0" /><metadata
     id="metadata8"><rdf:RDF><cc:Work
         rdf:about=""><dc:format>image/svg+xml</dc:format><dc:type
           rdf:resource="http://purl.org/dc/dcmitype/StillImage" /><dc:title></dc:title></cc:Work></rdf:RDF></metadata><defs
     id="defs6"><clipPath
       clipPathUnits="userSpaceOnUse"
       id="clipPath18"><path
         d="m 0,595.28 841.89,0 L 841.89,0 0,0 0,595.28 z"
         id="path20"
         inkscape:connector-curvature="0" /></clipPath><clipPath
       clipPathUnits="userSpaceOnUse"
       id="clipPath302"><path
         d="m 755.525,387.313 13.993,0 0,-5.012 -13.993,0 0,5.012 z"
         id="path304"
         inkscape:connector-curvature="0" /></clipPath><clipPath
       clipPathUnits="userSpaceOnUse"
       id="clipPath318"><path
         d="m 766.183,390.736 13.416,0 0,-4.495 -13.416,0 0,4.495 z"
         id="path320"
         inkscape:connector-curvature="0" /></clipPath><clipPath
       clipPathUnits="userSpaceOnUse"
       id="clipPath342"><path
         d="m 722.698,355.617 21.428,0 0,-9.751 -21.428,0 0,9.751 z"
         id="path344"
         inkscape:connector-curvature="0" /></clipPath><clipPath
       clipPathUnits="userSpaceOnUse"
       id="clipPath362"><path
         d="m 755.976,368.844 17.718,0 0,-7.329 -17.718,0 0,7.329 z"
         id="path364"
         inkscape:connector-curvature="0" /></clipPath><clipPath
       clipPathUnits="userSpaceOnUse"
       id="clipPath378"><path
         d="m 769.498,374.108 16.069,0 0,-6.338 -16.069,0 0,6.338 z"
         id="path380"
         inkscape:connector-curvature="0" /></clipPath><clipPath
       clipPathUnits="userSpaceOnUse"
       id="clipPath402"><path
         d="m 758.053,338.853 23.231,0 0,-13.066 -23.231,0 0,13.066 z"
         id="path404"
         inkscape:connector-curvature="0" /></clipPath><clipPath
       clipPathUnits="userSpaceOnUse"
       id="clipPath418"><path
         d="m 756.625,355.963 20.459,0 0,-9.656 -20.459,0 0,9.656 z"
         id="path420"
         inkscape:connector-curvature="0" /></clipPath><clipPath
       clipPathUnits="userSpaceOnUse"
       id="clipPath434"><path
         d="m 771.386,363.039 18.839,0 0,-8.284 -18.839,0 0,8.284 z"
         id="path436"
         inkscape:connector-curvature="0" /></clipPath><clipPath
       clipPathUnits="userSpaceOnUse"
       id="clipPath450"><path
         d="m 774.939,348.41 21.276,0 0,-10.85 -21.276,0 0,10.85 z"
         id="path452"
         inkscape:connector-curvature="0" /></clipPath><clipPath
       clipPathUnits="userSpaceOnUse"
       id="clipPath466"><path
         d="m 767.899,382.998 14.161,0 0,-5.047 -14.161,0 0,5.047 z"
         id="path468"
         inkscape:connector-curvature="0" /></clipPath><clipPath
       clipPathUnits="userSpaceOnUse"
       id="clipPath482"><path
         d="m 756.018,378.656 15.298,0 0,-5.667 -15.298,0 0,5.667 z"
         id="path484"
         inkscape:connector-curvature="0" /></clipPath><clipPath
       clipPathUnits="userSpaceOnUse"
       id="clipPath502"><path
         d="m 727.036,368.684 18.154,0 0,-7.586 -18.154,0 0,7.586 z"
         id="path504"
         inkscape:connector-curvature="0" /></clipPath><clipPath
       clipPathUnits="userSpaceOnUse"
       id="clipPath518"><path
         d="m 708.578,362.401 20.472,0 0,-8.581 -20.472,0 0,8.581 z"
         id="path520"
         inkscape:connector-curvature="0" /></clipPath><clipPath
       clipPathUnits="userSpaceOnUse"
       id="clipPath678"><path
         d="m 675.853,277.574 114.372,0 0,-45.34 -114.372,0 0,45.34 z"
         id="path680"
         inkscape:connector-curvature="0" /></clipPath></defs><g
     id="g10"
     inkscape:groupmode="layer"
     inkscape:label="logo map v3_DB0814"
     transform="matrix(1.25,0,0,-1.25,-634.2881,367.86484)"><g
       id="g5350"><rect
         ry="13.376902"
         transform="scale(1,-1)"
         y="-294.29187"
         x="507.43048"
         height="107.90701"
         width="148.03772"
         id="rect5348"
         style="fill:#dd4814;fill-opacity:1;stroke:none" /><g
         id="g5245"><g
           id="g902"
           transform="translate(525.9102,241.2676)"><path
             d="m 0,0 c -3.381,0 -5.347,0.862 -5.586,1.733 l 0,24.219 -0.013,0.069 c -0.245,1.308 3.014,3.808 8.878,4.91 1.36,0.256 2.724,0.384 4.056,0.384 3.669,0 6.075,-0.99 6.342,-1.964 l 0,-24.219 0.012,-0.07 C 13.808,4.433 12.938,3.53 11.421,2.708 9.664,1.756 7.191,0.949 4.456,0.437 2.915,0.146 1.416,0 0.001,0 L 0,0 z"
             style="fill:#ffffff;fill-opacity:1;fill-rule:nonzero;stroke:none"
             id="path904"
             inkscape:connector-curvature="0" /></g><g
           id="g906"
           transform="translate(533.2451,273.3437)"><path
             d="m 0,0 c -1.323,0 -2.746,-0.126 -4.196,-0.397 -5.64,-1.059 -9.887,-3.655 -9.486,-5.798 l 0,-24.232 c 0.287,-1.526 2.855,-2.41 6.347,-2.41 1.411,0 2.973,0.145 4.597,0.449 5.64,1.058 10.243,3.371 9.841,5.514 l 0,24.231 C 6.804,-1.05 3.825,0 0,0 m 0,-1.522 c 3.49,0 5.31,-0.915 5.58,-1.349 l 0,-24.003 -0.001,-0.117 0.026,-0.14 c -0.082,-0.626 -2.767,-2.663 -8.625,-3.761 -1.495,-0.281 -2.947,-0.423 -4.315,-0.423 -3.243,0 -4.619,0.804 -4.824,1.113 l 0,24.007 0,0.141 -0.027,0.139 c -0.114,0.613 2.551,2.947 8.271,4.021 1.312,0.247 2.631,0.372 3.915,0.372"
             style="fill:#ffffff;fill-opacity:1;fill-rule:nonzero;stroke:none"
             id="path908"
             inkscape:connector-curvature="0" /></g><g
           id="g910"
           transform="translate(525.9102,265.499)"><path
             d="m 0,0 c -3.454,0 -5.432,0.9 -5.599,1.79 -0.245,1.308 3.014,3.809 8.878,4.909 1.36,0.255 2.725,0.385 4.056,0.385 3.74,0 6.168,-1.028 6.354,-2.022 C 13.808,4.432 12.938,3.529 11.421,2.707 9.665,1.756 7.191,0.949 4.456,0.436 2.915,0.146 1.416,0 0,0"
             style="fill:#dd4814;fill-opacity:1;fill-rule:nonzero;stroke:none"
             id="path912"
             inkscape:connector-curvature="0" /></g><g
           id="g914"
           transform="translate(533.2451,273.3437)"><path
             d="m 0,0 c -1.322,0 -2.746,-0.125 -4.196,-0.397 -5.64,-1.059 -9.887,-3.655 -9.486,-5.798 0.287,-1.527 2.855,-2.411 6.347,-2.411 1.411,0 2.973,0.144 4.597,0.449 5.64,1.058 10.243,3.371 9.841,5.514 C 6.804,-1.05 3.825,0 0,0 m 0,-1.522 c 3.639,0 5.461,-0.995 5.605,-1.377 -0.082,-0.626 -2.767,-2.663 -8.624,-3.762 -1.496,-0.28 -2.948,-0.423 -4.316,-0.423 -3.473,0 -4.804,0.923 -4.851,1.169 -0.114,0.613 2.551,2.948 8.27,4.021 1.314,0.247 2.632,0.372 3.916,0.372"
             style="fill:#ffffff;fill-opacity:1;fill-rule:nonzero;stroke:none"
             id="path916"
             inkscape:connector-curvature="0" /></g><g
           id="g918"
           transform="translate(547.3467,248.8164)"><path
             d="m 0,0 c -3.879,0 -6.528,1.158 -6.619,1.764 -0.04,0.265 0.06,0.563 0.3,0.887 1.048,1.418 4.084,2.687 7.736,3.232 0.946,0.141 1.905,0.213 2.85,0.213 4.106,0 6.576,-1.31 6.712,-2.215 C 10.99,3.815 11.021,3.613 10.78,3.289 9.855,2.038 6.442,0.78 2.286,0.16 1.574,0.054 0.805,0 0,0"
             style="fill:#ffffff;fill-opacity:1;fill-rule:nonzero;stroke:none"
             id="path920"
             inkscape:connector-curvature="0" /></g><g
           id="g922"
           transform="translate(551.6133,255.6738)"><path
             d="m 0,0 c -0.951,0 -1.948,-0.07 -2.962,-0.222 -5.298,-0.791 -8.978,-2.989 -8.677,-4.985 0.21,-1.39 3.811,-2.412 7.372,-2.412 0.816,0 1.628,0.054 2.399,0.169 5.298,0.791 9.635,2.592 9.334,4.588 C 7.221,-1.247 4.018,0 0,0 m 0,-1.522 c 3.664,0 5.691,-1.085 5.945,-1.536 -0.268,-0.531 -2.506,-2.06 -8.038,-2.886 -0.675,-0.101 -1.406,-0.153 -2.174,-0.153 -3.003,0 -5.251,0.746 -5.837,1.222 0.023,0.053 0.063,0.126 0.13,0.217 0.741,1.002 3.321,2.346 7.237,2.93 0.909,0.136 1.83,0.206 2.737,0.206"
             style="fill:#dd4814;fill-opacity:1;fill-rule:nonzero;stroke:none"
             id="path924"
             inkscape:connector-curvature="0" /></g><g
           id="g926"
           transform="translate(575.7373,258.4971)"><path
             d="m 0,0 c -0.202,1.851 -4.602,3.07 -9.557,2.545 -4.954,-0.524 -8.313,-2.233 -8.112,-4.082 0.201,-1.85 4.343,-2.909 9.298,-2.385 C -3.417,-3.398 0.2,-1.849 0,0"
             style="fill:#ffffff;fill-opacity:1;fill-rule:nonzero;stroke:none"
             id="path928"
             inkscape:connector-curvature="0" /></g><g
           id="g930"
           transform="translate(589.5176,263.1748)"><path
             d="m 0,0 c -0.101,1.701 -3.98,3.112 -8.593,2.855 -4.611,-0.255 -7.46,-1.618 -7.359,-3.32 0.1,-1.703 3.323,-2.978 7.936,-2.723 C -3.404,-2.931 0.102,-1.703 0,0"
             style="fill:#ffffff;fill-opacity:1;fill-rule:nonzero;stroke:none"
             id="path932"
             inkscape:connector-curvature="0" /></g><g
           id="g934"
           transform="translate(602.1523,267.5596)"><path
             d="m 0,0 c -0.001,1.556 -3.286,2.878 -7.558,2.889 -4.269,0.011 -7.359,-1.204 -7.358,-2.76 0,-1.557 3.598,-2.838 7.868,-2.849 C -2.777,-2.73 0,-1.556 0,0"
             style="fill:#ffffff;fill-opacity:1;fill-rule:nonzero;stroke:none"
             id="path936"
             inkscape:connector-curvature="0" /></g><g
           id="g938"
           transform="translate(613.1992,271.2686)"><path
             d="m 0,0 c 0.1,1.409 -2.582,2.657 -6.509,2.936 -3.927,0.277 -7.377,-0.839 -7.477,-2.249 -0.1,-1.409 2.47,-2.389 6.397,-2.667 C -3.662,-2.26 -0.1,-1.408 0,0"
             style="fill:#ffffff;fill-opacity:1;fill-rule:nonzero;stroke:none"
             id="path940"
             inkscape:connector-curvature="0" /></g><g
           id="g942"
           transform="translate(623.2822,274.9678)"><path
             d="m 0,0 c 0.09,1.261 -2.488,2.391 -6.255,2.658 -3.766,0.266 -7.069,-0.718 -7.158,-1.979 -0.09,-1.261 2.378,-2.152 6.145,-2.419 C -3.502,-2.007 -0.091,-1.262 0,0"
             style="fill:#ffffff;fill-opacity:1;fill-rule:nonzero;stroke:none"
             id="path944"
             inkscape:connector-curvature="0" /></g><g
           id="g946"
           transform="translate(592.0273,198.7109)"><path
             d="m 0,0 c -5.799,0 -10.313,2.534 -10.735,6.024 -0.491,4.056 4.613,8.021 11.376,8.838 0.809,0.099 1.626,0.149 2.425,0.149 5.797,0 10.311,-2.533 10.734,-6.024 C 14.029,7.091 13.02,5.132 10.958,3.474 8.792,1.732 5.761,0.551 2.421,0.147 1.613,0.05 0.799,0 0.001,0 L 0,0 z"
             style="fill:#dd4814;fill-opacity:1;fill-rule:nonzero;stroke:none"
             id="path948"
             inkscape:connector-curvature="0" /></g><g
           id="g950"
           transform="translate(595.0937,214.4824)"><path
             d="m 0,0 c -0.821,0 -1.663,-0.05 -2.518,-0.153 -7.19,-0.869 -12.581,-5.205 -12.04,-9.686 0.478,-3.95 5.406,-6.693 11.492,-6.693 0.82,0 1.659,0.049 2.512,0.152 7.193,0.869 12.585,5.205 12.043,9.688 C 11.011,-2.742 6.086,0 0,0 m 0,-1.522 c 5.318,0 9.608,-2.301 9.979,-5.353 0.196,-1.627 -0.715,-3.342 -2.565,-4.83 -2.056,-1.653 -4.95,-2.776 -8.15,-3.163 -0.779,-0.095 -1.563,-0.143 -2.33,-0.143 -5.321,0 -9.612,2.302 -9.98,5.355 -0.433,3.578 4.473,7.237 10.711,7.991 0.78,0.095 1.565,0.143 2.335,0.143"
             style="fill:#ffffff;fill-opacity:1;fill-rule:nonzero;stroke:none"
             id="path952"
             inkscape:connector-curvature="0" /></g><g
           id="g954"
           transform="translate(603.7607,245.751)"><path
             d="m 0,0 c -0.167,2.305 -4.521,4.047 -9.866,3.691 -5.344,-0.355 -9.539,-2.512 -9.372,-4.816 0.167,-2.304 4.634,-3.883 9.979,-3.527 C -3.914,-4.297 0.168,-2.304 0,0"
             style="fill:#ffffff;fill-opacity:1;fill-rule:nonzero;stroke:none"
             id="path956"
             inkscape:connector-curvature="0" /></g><g
           id="g958"
           transform="translate(617.3789,252.0898)"><path
             d="m 0,0 c -0.063,2.021 -3.943,3.806 -8.886,3.683 -4.941,-0.125 -8.896,-1.863 -8.832,-3.883 0.063,-2.02 4.122,-3.558 9.065,-3.435 C -3.714,-3.511 0.063,-2.02 0,0"
             style="fill:#ffffff;fill-opacity:1;fill-rule:nonzero;stroke:none"
             id="path960"
             inkscape:connector-curvature="0" /></g><g
           id="g962"
           transform="translate(629.252,257.3252)"><path
             d="m 0,0 c 0.047,1.746 -3.328,3.594 -7.833,3.709 -4.503,0.116 -8.19,-1.205 -8.236,-2.95 -0.044,-1.747 3.57,-3.256 8.075,-3.372 C -3.49,-2.729 -0.043,-1.746 0,0"
             style="fill:#ffffff;fill-opacity:1;fill-rule:nonzero;stroke:none"
             id="path964"
             inkscape:connector-curvature="0" /></g><g
           id="g966"
           transform="translate(620.7666,238.1006)"><path
             d="m 0,0 c -0.099,2.662 -4.613,4.965 -10.313,4.786 -5.699,-0.18 -10.24,-2.481 -10.143,-5.141 0.1,-2.663 4.802,-4.674 10.5,-4.495 C -4.257,-4.671 0.099,-2.662 0,0"
             style="fill:#ffffff;fill-opacity:1;fill-rule:nonzero;stroke:none"
             id="path968"
             inkscape:connector-curvature="0" /></g><g
           id="g970"
           transform="translate(633.9082,245.1416)"><path
             d="m 0,0 c 0.06,2.283 -3.891,4.687 -9.171,4.822 -5.278,0.137 -9.606,-1.603 -9.666,-3.886 -0.058,-2.284 4.175,-4.244 9.455,-4.379 C -4.104,-3.578 -0.058,-2.283 0,0"
             style="fill:#ffffff;fill-opacity:1;fill-rule:nonzero;stroke:none"
             id="path972"
             inkscape:connector-curvature="0" /></g><g
           id="g974"
           transform="translate(639.8984,229.0586)"><path
             d="m 0,0 c 0.077,2.991 -4.373,6.126 -10.336,6.278 -5.963,0.153 -10.86,-2.148 -10.936,-5.139 -0.079,-2.992 4.695,-5.54 10.657,-5.695 C -4.652,-4.708 -0.076,-2.991 0,0"
             style="fill:#ffffff;fill-opacity:1;fill-rule:nonzero;stroke:none"
             id="path976"
             inkscape:connector-curvature="0" /></g><g
           id="g978"
           transform="translate(625.7441,267.0732)"><path
             d="m 0,0 c 0.012,1.394 -2.988,2.824 -6.956,2.857 -3.967,0.035 -7.192,-1.068 -7.204,-2.461 -0.013,-1.393 3.194,-2.55 7.162,-2.584 C -3.031,-2.221 -0.012,-1.393 0,0"
             style="fill:#ffffff;fill-opacity:1;fill-rule:nonzero;stroke:none"
             id="path980"
             inkscape:connector-curvature="0" /></g><g
           id="g982"
           transform="translate(615,262.7666)"><path
             d="m 0,0 c -0.054,1.561 -3.397,2.934 -7.664,2.815 -4.268,-0.118 -7.685,-1.479 -7.633,-3.039 0.053,-1.561 3.557,-2.729 7.825,-2.612 C -3.206,-2.717 0.054,-1.561 0,0"
             style="fill:#ffffff;fill-opacity:1;fill-rule:nonzero;stroke:none"
             id="path984"
             inkscape:connector-curvature="0" /></g><g
           id="g986"
           transform="translate(602.8896,257.8486)"><path
             d="m 0,0 c -0.106,1.706 -3.918,3.078 -8.665,2.891 -4.742,-0.19 -8.502,-1.727 -8.397,-3.434 0.107,-1.706 4.039,-2.936 8.783,-2.748 C -3.533,-3.103 0.106,-1.707 0,0"
             style="fill:#ffffff;fill-opacity:1;fill-rule:nonzero;stroke:none"
             id="path988"
             inkscape:connector-curvature="0" /></g><g
           id="g990"
           transform="translate(560.7637,241.5146)"><path
             d="m 0,0 c -4.68,0 -7.608,1.378 -7.735,2.709 l 0.003,6.779 c -0.037,0.413 0.111,0.782 0.432,1.168 1.29,1.55 4.794,2.822 8.72,3.164 0.684,0.06 1.371,0.09 2.04,0.09 4.621,0 7.618,-1.431 7.745,-2.756 L 11.202,4.376 C 11.238,3.963 11.094,3.597 10.775,3.214 9.507,1.689 6.017,0.435 2.091,0.092 1.389,0.031 0.686,0 0,0"
             style="fill:#dd4814;fill-opacity:1;fill-rule:nonzero;stroke:none"
             id="path992"
             inkscape:connector-curvature="0" /></g><g
           id="g994"
           transform="translate(564.2236,256.1855)"><path
             d="m 0,0 c -0.683,0 -1.387,-0.03 -2.106,-0.093 -5.66,-0.494 -10.069,-2.773 -9.847,-5.09 l 0,-6.851 c 0.192,-2.018 3.825,-3.399 8.493,-3.399 0.699,0 1.42,0.032 2.157,0.096 5.659,0.494 10.029,2.725 9.806,5.042 l 0,6.851 C 8.31,-1.421 4.683,0 0,0 m 0,-1.522 c 4.664,0 6.834,-1.414 6.98,-2.027 l 0,-6.746 0,-0.073 0.007,-0.072 C 7,-10.566 6.906,-10.759 6.73,-10.97 c -0.923,-1.11 -3.873,-2.475 -8.166,-2.85 -0.679,-0.06 -1.361,-0.09 -2.024,-0.09 -4.659,0 -6.824,1.382 -6.971,1.98 l 0,6.747 0,0.073 -0.007,0.072 c -0.011,0.124 0.086,0.324 0.263,0.537 0.942,1.13 3.908,2.517 8.201,2.892 0.662,0.057 1.327,0.087 1.974,0.087"
             style="fill:#ffffff;fill-opacity:1;fill-rule:nonzero;stroke:none"
             id="path996"
             inkscape:connector-curvature="0" /></g><g
           id="g998"
           transform="translate(560.7627,249.127)"><path
             d="m 0,0 c -4.68,0 -7.607,1.377 -7.734,2.708 -0.034,0.341 0.114,0.711 0.436,1.098 1.29,1.549 4.793,2.821 8.719,3.164 0.684,0.059 1.371,0.09 2.04,0.09 4.621,0 7.618,-1.431 7.745,-2.756 C 11.239,3.963 11.095,3.597 10.776,3.215 9.508,1.689 6.018,0.435 2.092,0.092 1.39,0.031 0.686,0 0.001,0 L 0,0 z"
             style="fill:#dd4814;fill-opacity:1;fill-rule:nonzero;stroke:none"
             id="path1000"
             inkscape:connector-curvature="0" /></g><g
           id="g1002"
           transform="translate(564.2236,256.9473)"><path
             d="m 0,0 c -0.683,0 -1.387,-0.03 -2.106,-0.093 -5.66,-0.494 -10.069,-2.773 -9.847,-5.092 0.192,-2.015 3.825,-3.397 8.492,-3.397 0.699,0 1.421,0.031 2.158,0.096 5.659,0.494 10.029,2.725 9.806,5.042 C 8.31,-1.421 4.683,0 0,0 m 0,-1.522 c 4.771,0 6.932,-1.479 6.987,-2.068 C 7,-3.715 6.906,-3.908 6.73,-4.119 5.807,-5.229 2.857,-6.595 -1.436,-6.97 c -0.68,-0.059 -1.362,-0.09 -2.025,-0.09 -4.766,0 -6.922,1.446 -6.977,2.02 -0.011,0.125 0.087,0.326 0.264,0.539 0.941,1.13 3.908,2.517 8.2,2.892 0.662,0.057 1.327,0.087 1.974,0.087"
             style="fill:#ffffff;fill-opacity:1;fill-rule:nonzero;stroke:none"
             id="path1004"
             inkscape:connector-curvature="0" /></g><g
           id="g1006"
           transform="translate(539.6758,233.0908)"><path
             d="m 0,0 c -4.343,0 -7.783,1.284 -8.004,2.987 l 0.006,18.679 c -0.26,2.064 3.856,4.824 10.168,5.64 1.097,0.141 2.187,0.214 3.244,0.214 4.343,0 7.783,-1.286 8.003,-2.988 L 13.411,5.853 C 13.543,4.777 12.617,3.628 10.876,2.6 8.917,1.443 6.207,0.596 3.244,0.213 2.147,0.072 1.056,0 0,0"
             style="fill:#ffffff;fill-opacity:1;fill-rule:nonzero;stroke:none"
             id="path1008"
             inkscape:connector-curvature="0" /></g><g
           id="g1010"
           transform="translate(545.0898,261.3711)"><path
             d="m 0,0 c -1.067,0 -2.189,-0.071 -3.342,-0.22 -6.332,-0.818 -11.18,-3.681 -10.831,-6.394 l 0,-18.777 c 0.287,-2.218 3.964,-3.651 8.759,-3.651 1.066,0 2.189,0.071 3.342,0.221 6.332,0.817 11.18,3.679 10.83,6.393 l 0,18.777 C 8.472,-1.432 4.795,0 0,0 m 0,-1.522 c 4.43,0 7.003,-1.289 7.235,-2.256 l 0,-18.65 0,-0.098 0.013,-0.096 c 0.066,-0.518 -0.579,-1.462 -2.173,-2.402 -1.845,-1.09 -4.521,-1.924 -7.343,-2.288 -1.064,-0.138 -2.123,-0.208 -3.146,-0.208 -4.43,0 -7.003,1.289 -7.236,2.257 l 0,18.649 0,0.097 -0.013,0.097 c -0.066,0.519 0.58,1.462 2.174,2.403 1.845,1.089 4.521,1.923 7.343,2.288 1.064,0.137 2.123,0.207 3.146,0.207"
             style="fill:#ffffff;fill-opacity:1;fill-rule:nonzero;stroke:none"
             id="path1012"
             inkscape:connector-curvature="0" /></g><g
           id="g1014"
           transform="translate(539.6758,251.8662)"><path
             d="M 0,0 C -4.342,0 -7.783,1.285 -8.004,2.988 -8.258,4.955 -4.142,7.715 2.17,8.53 3.267,8.672 4.357,8.744 5.414,8.744 9.757,8.744 13.197,7.46 13.417,5.756 13.671,3.789 9.556,1.029 3.244,0.214 2.147,0.072 1.057,0 0.001,0 L 0,0 z"
             style="fill:#dd4814;fill-opacity:1;fill-rule:nonzero;stroke:none"
             id="path1016"
             inkscape:connector-curvature="0" /></g><g
           id="g1018"
           transform="translate(545.0898,261.3711)"><path
             d="m 0,0 c -1.067,0 -2.189,-0.07 -3.342,-0.22 -6.332,-0.818 -11.18,-3.681 -10.831,-6.394 0.287,-2.219 3.965,-3.652 8.759,-3.652 1.067,0 2.189,0.071 3.342,0.22 6.332,0.818 11.18,3.681 10.83,6.395 C 8.472,-1.433 4.794,0 0,0 m 0,-1.522 c 4.534,0 7.122,-1.35 7.248,-2.325 C 7.314,-4.364 6.669,-5.308 5.075,-6.249 3.23,-7.338 0.554,-8.172 -2.268,-8.536 c -1.064,-0.138 -2.123,-0.207 -3.146,-0.207 -4.533,0 -7.123,1.349 -7.249,2.323 -0.066,0.518 0.58,1.461 2.174,2.402 1.845,1.09 4.521,1.924 7.343,2.289 1.064,0.137 2.123,0.207 3.146,0.207"
             style="fill:#ffffff;fill-opacity:1;fill-rule:nonzero;stroke:none"
             id="path1020"
             inkscape:connector-curvature="0" /></g><g
           id="g1022"
           transform="translate(575.8037,233.5615)"><path
             d="m 0,0 c -5.139,0 -8.491,1.652 -8.651,3.183 l 0.004,21.803 c -0.054,0.557 0.129,1.055 0.541,1.56 1.374,1.688 4.882,3.043 8.938,3.451 0.75,0.075 1.502,0.113 2.234,0.113 4.901,0 8.002,-1.657 8.17,-3.259 L 11.232,5.047 C 11.294,4.42 11.099,3.868 10.657,3.325 9.36,1.731 6.171,0.502 2.335,0.116 1.561,0.039 0.774,0 0.001,0 L 0,0 z"
             style="fill:#dd4814;fill-opacity:1;fill-rule:nonzero;stroke:none"
             id="path1024"
             inkscape:connector-curvature="0" /></g><g
           id="g1026"
           transform="translate(578.8701,264.4326)"><path
             d="m 0,0 c -0.748,0 -1.521,-0.038 -2.311,-0.117 -5.96,-0.599 -10.442,-3.104 -10.164,-5.768 l 0,-21.883 c 0.241,-2.301 4.433,-3.865 9.409,-3.865 0.789,0 1.595,0.039 2.411,0.121 5.96,0.599 9.861,3.022 9.582,5.688 l 0,21.883 C 8.686,-1.63 4.892,0 0,0 m 0,-1.521 c 4.519,0 7.207,-1.472 7.404,-2.522 l 0,-21.781 0,-0.079 0.009,-0.079 c 0.013,-0.127 0.053,-0.511 -0.413,-1.083 -0.92,-1.131 -3.454,-2.495 -7.808,-2.932 -0.749,-0.075 -1.509,-0.113 -2.258,-0.113 -4.915,0 -7.696,1.566 -7.886,2.45 l 0,21.775 0,0.079 -0.009,0.079 c -0.027,0.269 0.1,0.58 0.378,0.921 1.027,1.262 4.03,2.733 8.425,3.174 0.724,0.073 1.451,0.111 2.158,0.111"
             style="fill:#ffffff;fill-opacity:1;fill-rule:nonzero;stroke:none"
             id="path1028"
             inkscape:connector-curvature="0" /></g><g
           id="g1030"
           transform="translate(575.8037,255.4443)"><path
             d="m 0,0 c -5.139,0 -8.491,1.651 -8.651,3.183 -0.05,0.477 0.133,0.975 0.545,1.48 1.374,1.689 4.882,3.043 8.938,3.451 0.75,0.075 1.502,0.114 2.234,0.114 4.901,0 8.002,-1.658 8.17,-3.26 C 11.294,4.42 11.099,3.868 10.657,3.325 9.36,1.731 6.171,0.502 2.335,0.116 1.561,0.039 0.774,0 0,0"
             style="fill:#dd4814;fill-opacity:1;fill-rule:nonzero;stroke:none"
             id="path1032"
             inkscape:connector-curvature="0" /></g><g
           id="g1034"
           transform="translate(578.8701,264.4326)"><path
             d="m 0,0 c -0.748,0 -1.521,-0.038 -2.311,-0.117 -5.96,-0.599 -10.442,-3.104 -10.164,-5.768 0.241,-2.302 4.433,-3.865 9.41,-3.865 0.787,0 1.595,0.039 2.41,0.121 5.96,0.599 9.861,3.022 9.582,5.688 C 8.686,-1.63 4.892,0 0,0 m 0,-1.521 c 4.6,0 7.303,-1.525 7.413,-2.579 C 7.426,-4.227 7.466,-4.61 7,-5.183 6.08,-6.313 3.546,-7.677 -0.808,-8.114 c -0.749,-0.075 -1.509,-0.114 -2.257,-0.114 -5.013,0 -7.804,1.628 -7.896,2.501 -0.027,0.269 0.1,0.58 0.378,0.921 1.027,1.262 4.03,2.733 8.425,3.174 0.724,0.073 1.451,0.111 2.158,0.111"
             style="fill:#ffffff;fill-opacity:1;fill-rule:nonzero;stroke:none"
             id="path1036"
             inkscape:connector-curvature="0" /></g><g
           id="g1038"
           transform="translate(593,224.2734)"><path
             d="m 0,0 c -5.13,0.001 -9.262,1.826 -9.406,4.157 l 0.001,19.17 c -0.041,0.684 0.226,1.33 0.794,1.969 1.615,1.819 5.254,3.142 9.269,3.371 0.402,0.022 0.798,0.034 1.188,0.034 5.023,0 9.231,-1.928 9.379,-4.297 L 11.224,5.235 C 11.264,4.557 11.006,3.924 10.458,3.306 8.899,1.55 5.286,0.266 1.253,0.036 0.83,0.012 0.412,0 0,0"
             style="fill:#dd4814;fill-opacity:1;fill-rule:nonzero;stroke:none"
             id="path1040"
             inkscape:connector-curvature="0" /></g><g
           id="g1042"
           transform="translate(594.8457,253.7354)"><path
             d="m 0,0 c -0.404,0 -0.814,-0.012 -1.23,-0.035 -6.143,-0.35 -10.969,-3.08 -10.782,-6.1 l 0,-19.217 c 0.174,-2.804 4.614,-4.871 10.166,-4.871 0.426,0 0.859,0.012 1.296,0.037 6.142,0.35 10.877,2.94 10.689,5.959 l 0,19.217 C 9.963,-2.194 5.572,0 0,0 m 0,-1.522 c 4.911,0 8.46,-1.86 8.616,-3.544 l 0,-19.161 0,-0.047 0.003,-0.047 c 0.027,-0.422 -0.167,-0.869 -0.576,-1.329 -1.431,-1.614 -4.838,-2.797 -8.68,-3.016 -0.403,-0.022 -0.809,-0.034 -1.209,-0.034 -4.931,0 -8.491,1.787 -8.643,3.405 l 0,19.16 0,0.047 -0.003,0.048 c -0.027,0.426 0.177,0.887 0.604,1.369 1.488,1.675 4.919,2.899 8.744,3.116 0.381,0.022 0.767,0.033 1.144,0.033"
             style="fill:#ffffff;fill-opacity:1;fill-rule:nonzero;stroke:none"
             id="path1044"
             inkscape:connector-curvature="0" /></g><g
           id="g1046"
           transform="translate(593,243.4902)"><path
             d="m 0,0 c -5.13,0.001 -9.262,1.826 -9.406,4.157 -0.04,0.637 0.227,1.283 0.795,1.922 1.615,1.819 5.254,3.143 9.269,3.371 0.402,0.023 0.798,0.034 1.188,0.034 5.023,0 9.231,-1.927 9.379,-4.297 C 11.264,4.557 11.006,3.924 10.458,3.306 8.899,1.55 5.286,0.266 1.253,0.036 0.83,0.012 0.412,0 0,0"
             style="fill:#dd4814;fill-opacity:1;fill-rule:nonzero;stroke:none"
             id="path1048"
             inkscape:connector-curvature="0" /></g><g
           id="g1050"
           transform="translate(594.8457,253.7354)"><path
             d="m 0,0 c -0.404,0 -0.814,-0.012 -1.23,-0.035 -6.143,-0.35 -10.969,-3.08 -10.782,-6.1 0.174,-2.804 4.614,-4.871 10.166,-4.871 0.426,0 0.859,0.012 1.296,0.037 6.142,0.35 10.877,2.94 10.689,5.959 C 9.963,-2.194 5.572,0 0,0 m 0,-1.522 c 4.948,0 8.514,-1.888 8.619,-3.582 0.027,-0.422 -0.167,-0.87 -0.576,-1.33 -1.431,-1.613 -4.838,-2.796 -8.68,-3.015 -0.402,-0.023 -0.809,-0.034 -1.209,-0.034 -4.969,0 -8.546,1.814 -8.646,3.443 -0.027,0.426 0.177,0.887 0.604,1.369 1.488,1.675 4.919,2.899 8.744,3.116 0.381,0.022 0.767,0.033 1.144,0.033"
             style="fill:#ffffff;fill-opacity:1;fill-rule:nonzero;stroke:none"
             id="path1052"
             inkscape:connector-curvature="0" /></g><g
           id="g1054"
           transform="translate(613.1797,213.4824)"><path
             d="m 0,0 c -3.994,0 -7.633,1.182 -9.494,3.083 -0.807,0.824 -1.206,1.706 -1.187,2.623 l 0,13.748 21.71,0 L 11.027,5.66 C 10.962,2.571 6.054,0.025 0.088,0 L 0,0 z"
             style="fill:#dd4814;fill-opacity:1;fill-rule:nonzero;stroke:none"
             id="path1056"
             inkscape:connector-curvature="0" /></g><g
           id="g1058"
           transform="translate(624.9697,233.6973)"><path
             d="m 0,0 -23.231,0 0,-12.938 0,-1.555 c -0.077,-3.593 5.038,-6.483 11.441,-6.483 l 0.091,0 c 6.445,0.028 11.621,2.811 11.697,6.42 L 0,-12.938 0,0 z m -1.522,-1.522 0,-11.415 -10e-4,-1.586 c -0.05,-2.361 -4.154,-4.905 -10.183,-4.93 l -0.084,0 c -3.797,0 -7.227,1.094 -8.95,2.853 -0.658,0.672 -0.985,1.371 -0.969,2.107 l 0,1.555 0,11.416 20.187,0"
             style="fill:#ffffff;fill-opacity:1;fill-rule:nonzero;stroke:none"
             id="path1060"
             inkscape:connector-curvature="0" /></g><g
           id="g1062"
           transform="translate(613.1797,227.9434)"><path
             d="m 0,0 c -3.994,0 -7.632,1.182 -9.494,3.084 -0.807,0.823 -1.206,1.706 -1.187,2.622 0.067,3.14 5.128,5.813 11.052,5.837 3.957,0 7.525,-1.19 9.4,-3.106 C 10.613,7.578 11.047,6.623 11.027,5.676 10.962,2.573 6.054,0.026 0.088,0 L 0,0 z"
             style="fill:#dd4814;fill-opacity:1;fill-rule:nonzero;stroke:none"
             id="path1064"
             inkscape:connector-curvature="0" /></g><g
           id="g1066"
           transform="translate(613.6396,240.2471)"><path
             d="m 0,0 -0.092,0 c -6.445,-0.026 -11.733,-2.974 -11.809,-6.582 -0.077,-3.591 5.038,-6.482 11.441,-6.482 l 0.091,0 c 6.445,0.028 11.621,2.812 11.697,6.42 C 11.404,-3.055 6.401,0 0,0 m 0,-1.522 c 3.671,0 7.03,-1.103 8.768,-2.877 0.705,-0.72 1.054,-1.464 1.039,-2.212 -0.05,-2.361 -4.154,-4.905 -10.183,-4.931 l -0.084,0 c -3.797,0 -7.227,1.094 -8.95,2.854 -0.658,0.672 -0.985,1.37 -0.97,2.074 0.051,2.388 4.291,5.067 10.295,5.092 l 0.085,0"
             style="fill:#ffffff;fill-opacity:1;fill-rule:nonzero;stroke:none"
             id="path1068"
             inkscape:connector-curvature="0" /></g><g
           id="g1070"
           transform="translate(554.751,223.583)"><path
             d="m 0,0 c -4.649,0 -8.21,1.447 -8.468,3.441 l 0.006,9.102 c -0.29,2.299 3.894,5.334 10.353,6.168 1.042,0.135 2.082,0.203 3.09,0.203 4.65,0 8.212,-1.448 8.47,-3.443 l -0.006,-9.1 C 13.596,5.156 12.653,3.87 10.864,2.746 8.875,1.496 6.115,0.592 3.093,0.203 2.05,0.068 1.01,0 0,0"
             style="fill:#ffffff;fill-opacity:1;fill-rule:nonzero;stroke:none"
             id="path1072"
             inkscape:connector-curvature="0" /></g><g
           id="g1074"
           transform="translate(559.7324,243.2578)"><path
             d="m 0,0 c -1.023,0 -2.092,-0.067 -3.188,-0.209 -6.47,-0.836 -11.402,-3.937 -11.016,-6.923 l 0,-9.199 c 0.32,-2.481 4.208,-4.106 9.223,-4.106 1.023,0 2.093,0.069 3.19,0.209 6.47,0.836 11.402,3.936 11.016,6.924 l 0,9.198 C 8.903,-1.624 5.016,0 0,0 m 0,-1.522 c 4.459,0 7.43,-1.389 7.702,-2.706 l 0,-9.076 0,-0.098 0.013,-0.097 c 0.101,-0.787 -0.755,-1.854 -2.237,-2.785 -1.871,-1.176 -4.591,-2.063 -7.464,-2.434 -1.011,-0.131 -2.019,-0.197 -2.995,-0.197 -4.458,0 -7.429,1.391 -7.701,2.705 l 0,9.078 0,0.098 -0.012,0.097 c -0.205,1.59 3.471,4.414 9.701,5.218 1.01,0.13 2.016,0.197 2.993,0.197"
             style="fill:#ffffff;fill-opacity:1;fill-rule:nonzero;stroke:none"
             id="path1076"
             inkscape:connector-curvature="0" /></g><g
           id="g1078"
           transform="translate(554.752,233.1602)"><path
             d="M 0,0 C -4.649,0 -8.211,1.448 -8.469,3.442 -8.753,5.645 -4.569,8.68 1.89,9.514 2.932,9.648 3.972,9.717 4.981,9.717 9.63,9.717 13.192,8.269 13.45,6.274 13.595,5.157 12.652,3.871 10.863,2.747 8.874,1.497 6.114,0.594 3.092,0.203 2.05,0.068 1.01,0 0,0"
             style="fill:#dd4814;fill-opacity:1;fill-rule:nonzero;stroke:none"
             id="path1080"
             inkscape:connector-curvature="0" /></g><g
           id="g1082"
           transform="translate(559.7334,243.6377)"><path
             d="m 0,0 c -1.023,0 -2.093,-0.067 -3.189,-0.209 -6.47,-0.836 -11.402,-3.936 -11.016,-6.924 0.32,-2.482 4.209,-4.105 9.224,-4.105 1.023,0 2.093,0.067 3.189,0.209 6.47,0.836 11.402,3.935 11.016,6.924 C 8.902,-1.623 5.015,0 0,0 m 0,-1.522 c 4.542,0 7.541,-1.443 7.714,-2.779 C 7.815,-5.088 6.959,-6.154 5.477,-7.086 3.606,-8.262 0.886,-9.148 -1.987,-9.52 c -1.01,-0.13 -2.018,-0.196 -2.994,-0.196 -4.543,0 -7.541,1.442 -7.714,2.779 -0.205,1.589 3.471,4.414 9.701,5.218 1.01,0.131 2.016,0.197 2.994,0.197"
             style="fill:#ffffff;fill-opacity:1;fill-rule:nonzero;stroke:none"
             id="path1084"
             inkscape:connector-curvature="0" /></g><g
           id="g1086"
           transform="translate(571.8418,212.3916)"><path
             d="m 0,0 c -5.264,0 -9.305,1.861 -9.608,4.426 l 0.004,5.492 c -0.172,1.502 0.812,3.008 2.766,4.328 2.104,1.42 5.025,2.412 8.225,2.792 0.915,0.108 1.832,0.163 2.727,0.163 5.261,0 9.301,-1.861 9.606,-4.426 L 13.715,7.283 C 13.888,5.779 12.904,4.275 10.949,2.955 8.846,1.533 5.925,0.543 2.726,0.162 1.812,0.055 0.895,0 0.001,0 L 0,0 z"
             style="fill:#ffffff;fill-opacity:1;fill-rule:nonzero;stroke:none"
             id="path1088"
             inkscape:connector-curvature="0" /></g><g
           id="g1090"
           transform="translate(575.9561,230.3545)"><path
             d="M 0,0 C -0.912,0 -1.854,-0.055 -2.817,-0.169 -9.678,-0.983 -14.898,-4.51 -14.479,-8.045 l 0,-5.582 c 0.361,-3.039 4.775,-5.098 10.365,-5.098 0.912,0 1.853,0.055 2.815,0.168 6.86,0.815 12.081,4.34 11.66,7.877 l 0,5.582 C 10,-2.059 5.589,0 0,0 m 0,-1.521 c 5.189,0 8.539,-1.86 8.839,-3.682 l 0,-5.477 0,-0.09 0.011,-0.089 c 0.13,-1.1 -0.759,-2.383 -2.441,-3.518 -2.005,-1.355 -4.806,-2.303 -7.888,-2.668 -0.883,-0.105 -1.771,-0.158 -2.635,-0.158 -5.192,0 -8.543,1.859 -8.842,3.682 l 0,5.476 0,0.09 -0.011,0.09 c -0.131,1.099 0.759,2.381 2.441,3.517 2.005,1.354 4.806,2.301 7.888,2.667 0.885,0.105 1.773,0.16 2.638,0.16"
             style="fill:#ffffff;fill-opacity:1;fill-rule:nonzero;stroke:none"
             id="path1092"
             inkscape:connector-curvature="0" /></g><g
           id="g1094"
           transform="translate(571.8398,217.9717)"><path
             d="m 0,0 c -5.263,0 -9.303,1.862 -9.606,4.428 -0.168,1.412 0.816,2.918 2.77,4.237 2.104,1.421 5.024,2.413 8.225,2.793 0.915,0.108 1.832,0.164 2.727,0.164 5.261,0 9.301,-1.862 9.606,-4.427 C 13.89,5.782 12.906,4.276 10.951,2.956 8.848,1.535 5.928,0.544 2.728,0.164 1.812,0.056 0.895,0 0,0"
             style="fill:#dd4814;fill-opacity:1;fill-rule:nonzero;stroke:none"
             id="path1096"
             inkscape:connector-curvature="0" /></g><g
           id="g1098"
           transform="translate(575.9561,230.3545)"><path
             d="m 0,0 c -0.912,0 -1.855,-0.055 -2.817,-0.169 -6.861,-0.814 -12.081,-4.341 -11.662,-7.876 0.361,-3.041 4.773,-5.099 10.363,-5.099 0.912,0 1.854,0.055 2.817,0.169 6.86,0.815 12.081,4.34 11.66,7.877 C 10,-2.059 5.589,0 0,0 m 0,-1.522 c 5.26,0 8.631,-1.91 8.85,-3.755 0.13,-1.1 -0.759,-2.383 -2.441,-3.519 -2.005,-1.353 -4.805,-2.301 -7.888,-2.667 -0.884,-0.105 -1.772,-0.158 -2.637,-0.158 -5.262,0 -8.632,1.909 -8.851,3.756 -0.131,1.099 0.759,2.381 2.441,3.517 2.005,1.354 4.806,2.301 7.888,2.667 0.885,0.106 1.773,0.159 2.638,0.159"
             style="fill:#ffffff;fill-opacity:1;fill-rule:nonzero;stroke:none"
             id="path1100"
             inkscape:connector-curvature="0" /></g></g></g></g></svg>